<svg xmlns="http://www.w3.org/2000/svg" xmlns:xlink="http://www.w3.org/1999/xlink" width="2000" zoomAndPan="magnify" viewBox="0 0 1500 1499.999933" height="2000" preserveAspectRatio="xMidYMid meet" version="1.0"><defs><clipPath id="14bee29c0c"><path d="M 17.578125 13.5 L 1483.828125 13.5 L 1483.828125 1479.75 L 17.578125 1479.75 Z M 17.578125 13.5 " clip-rule="nonzero"/></clipPath></defs><g clip-path="url(#14bee29c0c)"><path fill="#f03c2e" d="M 1456.152344 681.332031 L 815.996094 41.175781 C 814.90625 40.082031 813.785156 39.015625 812.640625 37.980469 C 811.496094 36.941406 810.328125 35.933594 809.132812 34.953125 C 807.9375 33.972656 806.722656 33.019531 805.480469 32.097656 C 804.238281 31.179688 802.976562 30.289062 801.691406 29.429688 C 800.40625 28.570312 799.101562 27.746094 797.777344 26.949219 C 796.453125 26.15625 795.109375 25.394531 793.746094 24.664062 C 792.382812 23.9375 791.003906 23.242188 789.605469 22.582031 C 788.207031 21.921875 786.796875 21.292969 785.371094 20.703125 C 783.941406 20.109375 782.5 19.554688 781.046875 19.035156 C 779.589844 18.511719 778.125 18.027344 776.644531 17.578125 C 775.167969 17.132812 773.679688 16.71875 772.179688 16.34375 C 770.679688 15.96875 769.171875 15.628906 767.65625 15.328125 C 766.140625 15.027344 764.621094 14.761719 763.089844 14.535156 C 761.5625 14.308594 760.03125 14.117188 758.492188 13.96875 C 756.953125 13.816406 755.414062 13.703125 753.871094 13.625 C 752.328125 13.550781 750.78125 13.511719 749.238281 13.511719 C 747.691406 13.511719 746.148438 13.550781 744.605469 13.625 C 743.0625 13.703125 741.519531 13.816406 739.980469 13.96875 C 738.445312 14.117188 736.910156 14.308594 735.382812 14.535156 C 733.855469 14.761719 732.332031 15.027344 730.816406 15.328125 C 729.300781 15.628906 727.792969 15.96875 726.296875 16.34375 C 724.796875 16.71875 723.308594 17.132812 721.828125 17.578125 C 720.351562 18.027344 718.882812 18.511719 717.429688 19.035156 C 715.972656 19.554688 714.53125 20.109375 713.105469 20.703125 C 711.675781 21.292969 710.265625 21.921875 708.867188 22.582031 C 707.472656 23.242188 706.089844 23.9375 704.730469 24.664062 C 703.367188 25.394531 702.023438 26.15625 700.695312 26.949219 C 699.371094 27.746094 698.066406 28.570312 696.78125 29.429688 C 695.496094 30.289062 694.234375 31.179688 692.992188 32.097656 C 691.753906 33.019531 690.535156 33.972656 689.339844 34.953125 C 688.148438 35.933594 686.976562 36.941406 685.832031 37.980469 C 684.6875 39.015625 683.570312 40.082031 682.476562 41.175781 L 549.597656 174.054688 L 718.214844 342.671875 C 757.4375 328.925781 802.34375 338.320312 833.59375 369.570312 C 835.441406 371.421875 837.222656 373.335938 838.9375 375.3125 C 840.648438 377.285156 842.292969 379.320312 843.867188 381.410156 C 845.4375 383.5 846.933594 385.644531 848.355469 387.839844 C 849.78125 390.035156 851.125 392.277344 852.390625 394.566406 C 853.65625 396.855469 854.839844 399.1875 855.941406 401.558594 C 857.042969 403.933594 858.0625 406.339844 858.996094 408.78125 C 859.929688 411.226562 860.777344 413.699219 861.539062 416.203125 C 862.300781 418.703125 862.976562 421.230469 863.558594 423.78125 C 864.144531 426.332031 864.640625 428.898438 865.046875 431.480469 C 865.449219 434.066406 865.765625 436.660156 865.988281 439.265625 C 866.210938 441.875 866.34375 444.484375 866.386719 447.101562 C 866.429688 449.714844 866.378906 452.328125 866.238281 454.941406 C 866.097656 457.554688 865.863281 460.15625 865.539062 462.753906 C 865.21875 465.347656 864.804688 467.929688 864.300781 470.496094 C 863.796875 473.066406 863.203125 475.609375 862.519531 478.136719 C 861.839844 480.660156 861.070312 483.160156 860.214844 485.632812 L 1022.738281 648.15625 C 1062.050781 634.59375 1107.414062 643.347656 1138.800781 674.824219 C 1140.101562 676.125 1141.371094 677.457031 1142.605469 678.820312 C 1143.84375 680.183594 1145.042969 681.574219 1146.210938 682.996094 C 1147.378906 684.417969 1148.511719 685.867188 1149.609375 687.34375 C 1150.703125 688.820312 1151.765625 690.324219 1152.785156 691.855469 C 1153.808594 693.382812 1154.792969 694.9375 1155.738281 696.515625 C 1156.6875 698.09375 1157.59375 699.691406 1158.460938 701.316406 C 1159.328125 702.9375 1160.15625 704.582031 1160.941406 706.242188 C 1161.730469 707.90625 1162.476562 709.585938 1163.179688 711.289062 C 1163.882812 712.988281 1164.546875 714.703125 1165.167969 716.433594 C 1165.785156 718.167969 1166.363281 719.914062 1166.898438 721.671875 C 1167.433594 723.433594 1167.921875 725.207031 1168.371094 726.992188 C 1168.816406 728.773438 1169.222656 730.570312 1169.582031 732.375 C 1169.941406 734.179688 1170.253906 735.992188 1170.523438 737.808594 C 1170.796875 739.628906 1171.019531 741.457031 1171.203125 743.285156 C 1171.382812 745.117188 1171.515625 746.949219 1171.609375 748.789062 C 1171.699219 750.625 1171.742188 752.464844 1171.742188 754.304688 C 1171.742188 756.144531 1171.699219 757.984375 1171.609375 759.820312 C 1171.519531 761.65625 1171.382812 763.492188 1171.203125 765.324219 C 1171.023438 767.152344 1170.796875 768.980469 1170.527344 770.800781 C 1170.257812 772.617188 1169.945312 774.429688 1169.585938 776.234375 C 1169.226562 778.039062 1168.824219 779.835938 1168.375 781.617188 C 1167.929688 783.402344 1167.4375 785.175781 1166.90625 786.9375 C 1166.371094 788.695312 1165.792969 790.445312 1165.175781 792.175781 C 1164.554688 793.90625 1163.890625 795.625 1163.1875 797.324219 C 1162.484375 799.023438 1161.738281 800.703125 1160.953125 802.367188 C 1160.164062 804.03125 1159.339844 805.671875 1158.472656 807.296875 C 1157.605469 808.917969 1156.699219 810.519531 1155.75 812.097656 C 1154.804688 813.675781 1153.820312 815.226562 1152.800781 816.757812 C 1151.777344 818.289062 1150.71875 819.792969 1149.621094 821.269531 C 1148.527344 822.746094 1147.394531 824.195312 1146.226562 825.617188 C 1145.058594 827.039062 1143.859375 828.433594 1142.621094 829.796875 C 1141.386719 831.160156 1140.117188 832.492188 1138.816406 833.789062 C 1137.515625 835.089844 1136.183594 836.359375 1134.820312 837.59375 C 1133.457031 838.832031 1132.0625 840.03125 1130.640625 841.199219 C 1129.21875 842.363281 1127.769531 843.496094 1126.292969 844.59375 C 1124.8125 845.6875 1123.308594 846.746094 1121.78125 847.769531 C 1120.25 848.789062 1118.695312 849.773438 1117.117188 850.71875 C 1115.539062 851.664062 1113.9375 852.570312 1112.316406 853.4375 C 1110.695312 854.304688 1109.050781 855.132812 1107.386719 855.917969 C 1105.722656 856.703125 1104.042969 857.449219 1102.34375 858.152344 C 1100.644531 858.855469 1098.925781 859.515625 1097.195312 860.136719 C 1095.460938 860.753906 1093.714844 861.332031 1091.953125 861.867188 C 1090.195312 862.398438 1088.421875 862.890625 1086.636719 863.335938 C 1084.851562 863.78125 1083.058594 864.183594 1081.253906 864.542969 C 1079.449219 864.902344 1077.636719 865.214844 1075.816406 865.484375 C 1073.996094 865.753906 1072.171875 865.976562 1070.339844 866.15625 C 1068.507812 866.335938 1066.675781 866.472656 1064.835938 866.5625 C 1063 866.652344 1061.160156 866.695312 1059.320312 866.695312 C 1057.480469 866.695312 1055.644531 866.648438 1053.804688 866.558594 C 1051.96875 866.464844 1050.132812 866.328125 1048.304688 866.148438 C 1046.472656 865.96875 1044.648438 865.742188 1042.828125 865.472656 C 1041.007812 865.199219 1039.195312 864.886719 1037.390625 864.527344 C 1035.585938 864.164062 1033.792969 863.761719 1032.007812 863.3125 C 1030.222656 862.867188 1028.453125 862.375 1026.691406 861.839844 C 1024.929688 861.304688 1023.183594 860.726562 1021.453125 860.105469 C 1019.722656 859.484375 1018.003906 858.824219 1016.304688 858.117188 C 1014.605469 857.414062 1012.925781 856.667969 1011.261719 855.878906 C 1009.601562 855.09375 1007.957031 854.265625 1006.335938 853.394531 C 1004.714844 852.527344 1003.113281 851.621094 1001.535156 850.675781 C 999.960938 849.726562 998.40625 848.742188 996.878906 847.71875 C 995.347656 846.695312 993.84375 845.636719 992.367188 844.539062 C 990.890625 843.441406 989.441406 842.3125 988.019531 841.144531 C 986.597656 839.976562 985.207031 838.773438 983.84375 837.535156 C 982.480469 836.300781 981.152344 835.03125 979.851562 833.730469 C 946.859375 800.738281 938.703125 752.167969 955.382812 711.527344 L 803.808594 559.953125 L 803.808594 958.820312 C 814.882812 964.300781 824.8125 971.386719 833.59375 980.078125 C 834.890625 981.378906 836.160156 982.710938 837.394531 984.074219 C 838.628906 985.4375 839.832031 986.828125 840.996094 988.25 C 842.164062 989.671875 843.292969 991.121094 844.390625 992.597656 C 845.484375 994.074219 846.542969 995.578125 847.566406 997.105469 C 848.585938 998.636719 849.570312 1000.1875 850.515625 1001.765625 C 851.460938 1003.34375 852.367188 1004.941406 853.234375 1006.5625 C 854.101562 1008.1875 854.929688 1009.828125 855.714844 1011.492188 C 856.5 1013.152344 857.246094 1014.832031 857.949219 1016.53125 C 858.652344 1018.230469 859.316406 1019.945312 859.933594 1021.679688 C 860.554688 1023.410156 861.128906 1025.15625 861.664062 1026.914062 C 862.199219 1028.675781 862.6875 1030.445312 863.136719 1032.230469 C 863.582031 1034.011719 863.984375 1035.808594 864.34375 1037.609375 C 864.703125 1039.414062 865.015625 1041.226562 865.285156 1043.042969 C 865.554688 1044.863281 865.78125 1046.6875 865.960938 1048.519531 C 866.140625 1050.347656 866.277344 1052.179688 866.367188 1054.019531 C 866.457031 1055.855469 866.503906 1057.691406 866.503906 1059.53125 C 866.503906 1061.371094 866.457031 1063.207031 866.367188 1065.046875 C 866.277344 1066.882812 866.140625 1068.714844 865.960938 1070.546875 C 865.78125 1072.375 865.554688 1074.199219 865.285156 1076.019531 C 865.015625 1077.835938 864.703125 1079.648438 864.34375 1081.453125 C 863.984375 1083.257812 863.582031 1085.050781 863.136719 1086.832031 C 862.6875 1088.617188 862.199219 1090.390625 861.664062 1092.148438 C 861.128906 1093.910156 860.554688 1095.652344 859.933594 1097.386719 C 859.316406 1099.117188 858.652344 1100.832031 857.949219 1102.53125 C 857.246094 1104.230469 856.5 1105.910156 855.714844 1107.574219 C 854.929688 1109.234375 854.101562 1110.878906 853.234375 1112.5 C 852.367188 1114.121094 851.460938 1115.71875 850.515625 1117.296875 C 849.570312 1118.875 848.585938 1120.429688 847.566406 1121.957031 C 846.542969 1123.484375 845.484375 1124.988281 844.390625 1126.464844 C 843.292969 1127.941406 842.164062 1129.390625 840.996094 1130.8125 C 839.832031 1132.234375 838.628906 1133.628906 837.394531 1134.988281 C 836.160156 1136.351562 834.890625 1137.683594 833.59375 1138.984375 C 832.292969 1140.285156 830.960938 1141.550781 829.597656 1142.785156 C 828.234375 1144.023438 826.84375 1145.222656 825.421875 1146.390625 C 824 1147.554688 822.550781 1148.6875 821.074219 1149.78125 C 819.597656 1150.878906 818.09375 1151.9375 816.566406 1152.957031 C 815.035156 1153.980469 813.484375 1154.960938 811.90625 1155.910156 C 810.328125 1156.855469 808.730469 1157.761719 807.105469 1158.625 C 805.484375 1159.492188 803.84375 1160.320312 802.179688 1161.105469 C 800.519531 1161.890625 798.839844 1162.636719 797.140625 1163.339844 C 795.441406 1164.042969 793.726562 1164.707031 791.992188 1165.324219 C 790.261719 1165.945312 788.515625 1166.523438 786.757812 1167.054688 C 784.996094 1167.589844 783.226562 1168.082031 781.441406 1168.527344 C 779.65625 1168.972656 777.863281 1169.375 776.0625 1169.734375 C 774.257812 1170.09375 772.445312 1170.410156 770.625 1170.679688 C 768.808594 1170.949219 766.984375 1171.171875 765.152344 1171.351562 C 763.324219 1171.535156 761.488281 1171.667969 759.652344 1171.757812 C 757.816406 1171.847656 755.980469 1171.894531 754.140625 1171.894531 C 752.300781 1171.894531 750.464844 1171.847656 748.625 1171.757812 C 746.789062 1171.667969 744.957031 1171.535156 743.125 1171.351562 C 741.296875 1171.171875 739.472656 1170.949219 737.652344 1170.679688 C 735.832031 1170.410156 734.023438 1170.09375 732.21875 1169.734375 C 730.414062 1169.375 728.621094 1168.972656 726.835938 1168.527344 C 725.054688 1168.082031 723.28125 1167.589844 721.523438 1167.054688 C 719.761719 1166.523438 718.015625 1165.945312 716.285156 1165.324219 C 714.554688 1164.707031 712.839844 1164.042969 711.140625 1163.339844 C 709.441406 1162.636719 707.761719 1161.890625 706.097656 1161.105469 C 704.4375 1160.320312 702.792969 1159.492188 701.171875 1158.625 C 699.550781 1157.761719 697.949219 1156.855469 696.375 1155.910156 C 694.796875 1154.964844 693.242188 1153.980469 691.714844 1152.957031 C 690.183594 1151.9375 688.683594 1150.878906 687.207031 1149.78125 C 685.726562 1148.6875 684.277344 1147.554688 682.859375 1146.390625 C 681.4375 1145.222656 680.042969 1144.023438 678.679688 1142.785156 C 677.320312 1141.550781 675.988281 1140.285156 674.6875 1138.984375 C 673.386719 1137.683594 672.117188 1136.355469 670.878906 1134.992188 C 669.644531 1133.628906 668.441406 1132.238281 667.273438 1130.816406 C 666.105469 1129.398438 664.972656 1127.949219 663.875 1126.472656 C 662.777344 1124.996094 661.71875 1123.492188 660.695312 1121.964844 C 659.671875 1120.433594 658.6875 1118.882812 657.742188 1117.304688 C 656.796875 1115.726562 655.886719 1114.128906 655.019531 1112.507812 C 654.152344 1110.886719 653.324219 1109.242188 652.539062 1107.582031 C 651.75 1105.917969 651.003906 1104.238281 650.300781 1102.539062 C 649.59375 1100.839844 648.933594 1099.125 648.3125 1097.394531 C 647.691406 1095.660156 647.113281 1093.914062 646.578125 1092.15625 C 646.042969 1090.394531 645.554688 1088.625 645.105469 1086.839844 C 644.660156 1085.054688 644.253906 1083.261719 643.894531 1081.457031 C 643.539062 1079.652344 643.222656 1077.84375 642.953125 1076.023438 C 642.683594 1074.203125 642.457031 1072.378906 642.277344 1070.546875 C 642.09375 1068.71875 641.960938 1066.882812 641.871094 1065.046875 C 641.78125 1063.210938 641.734375 1061.371094 641.734375 1059.53125 C 641.734375 1057.691406 641.78125 1055.855469 641.871094 1054.015625 C 641.960938 1052.179688 642.09375 1050.347656 642.277344 1048.515625 C 642.457031 1046.683594 642.683594 1044.859375 642.953125 1043.039062 C 643.222656 1041.222656 643.539062 1039.410156 643.894531 1037.605469 C 644.253906 1035.800781 644.660156 1034.007812 645.105469 1032.222656 C 645.554688 1030.441406 646.042969 1028.667969 646.578125 1026.90625 C 647.113281 1025.148438 647.691406 1023.402344 648.3125 1021.671875 C 648.933594 1019.9375 649.59375 1018.222656 650.300781 1016.523438 C 651.003906 1014.824219 651.75 1013.144531 652.539062 1011.480469 C 653.324219 1009.820312 654.152344 1008.179688 655.019531 1006.554688 C 655.886719 1004.933594 656.796875 1003.335938 657.742188 1001.757812 C 658.6875 1000.179688 659.671875 998.628906 660.695312 997.097656 C 661.71875 995.570312 662.777344 994.066406 663.875 992.589844 C 664.972656 991.113281 666.105469 989.667969 667.273438 988.246094 C 668.441406 986.824219 669.644531 985.433594 670.878906 984.070312 C 672.117188 982.710938 673.386719 981.378906 674.6875 980.078125 C 685.546875 969.265625 697.597656 961.0625 711.480469 955.566406 L 711.480469 552.988281 C 698.101562 547.488281 685.546875 539.378906 674.6875 528.472656 C 672.730469 526.519531 670.84375 524.492188 669.035156 522.398438 C 667.226562 520.300781 665.5 518.140625 663.847656 515.917969 C 662.199219 513.695312 660.636719 511.414062 659.15625 509.074219 C 657.675781 506.734375 656.285156 504.34375 654.980469 501.902344 C 653.675781 499.460938 652.464844 496.972656 651.347656 494.441406 C 650.226562 491.910156 649.203125 489.339844 648.273438 486.730469 C 647.34375 484.125 646.511719 481.484375 645.777344 478.816406 C 645.042969 476.148438 644.410156 473.453125 643.875 470.738281 C 643.339844 468.023438 642.90625 465.289062 642.574219 462.542969 C 642.238281 459.792969 642.007812 457.035156 641.878906 454.273438 C 641.75 451.507812 641.726562 448.742188 641.800781 445.972656 C 641.875 443.207031 642.054688 440.445312 642.335938 437.691406 C 642.613281 434.9375 642.996094 432.195312 643.480469 429.472656 C 643.960938 426.746094 644.542969 424.042969 645.226562 421.359375 C 645.910156 418.675781 646.691406 416.023438 647.570312 413.398438 C 648.449219 410.773438 649.421875 408.183594 650.496094 405.628906 L 484.167969 239.394531 L 45.207031 677.894531 C 44.113281 678.988281 43.046875 680.105469 42.007812 681.25 C 40.96875 682.394531 39.960938 683.566406 38.980469 684.757812 C 37.996094 685.953125 37.046875 687.171875 36.125 688.414062 C 35.203125 689.65625 34.3125 690.917969 33.453125 692.203125 C 32.59375 693.488281 31.765625 694.792969 30.972656 696.117188 C 30.175781 697.445312 29.414062 698.789062 28.683594 700.152344 C 27.953125 701.515625 27.257812 702.894531 26.597656 704.292969 C 25.9375 705.691406 25.308594 707.101562 24.71875 708.53125 C 24.125 709.957031 23.570312 711.398438 23.046875 712.855469 C 22.527344 714.3125 22.042969 715.777344 21.59375 717.257812 C 21.144531 718.738281 20.730469 720.226562 20.355469 721.726562 C 19.980469 723.226562 19.640625 724.734375 19.339844 726.25 C 19.035156 727.765625 18.773438 729.289062 18.546875 730.816406 C 18.320312 732.347656 18.128906 733.878906 17.976562 735.417969 C 17.824219 736.957031 17.710938 738.5 17.636719 740.042969 C 17.558594 741.585938 17.523438 743.132812 17.523438 744.675781 C 17.523438 746.222656 17.558594 747.769531 17.636719 749.3125 C 17.710938 750.855469 17.824219 752.398438 17.976562 753.9375 C 18.128906 755.476562 18.320312 757.007812 18.546875 758.539062 C 18.773438 760.066406 19.035156 761.589844 19.339844 763.105469 C 19.640625 764.621094 19.980469 766.128906 20.355469 767.628906 C 20.730469 769.128906 21.144531 770.617188 21.59375 772.097656 C 22.042969 773.578125 22.527344 775.042969 23.046875 776.5 C 23.570312 777.953125 24.125 779.398438 24.71875 780.824219 C 25.308594 782.253906 25.9375 783.664062 26.597656 785.0625 C 27.257812 786.460938 27.953125 787.839844 28.683594 789.203125 C 29.414062 790.566406 30.175781 791.910156 30.972656 793.238281 C 31.765625 794.5625 32.59375 795.867188 33.453125 797.152344 C 34.3125 798.4375 35.203125 799.699219 36.125 800.941406 C 37.046875 802.183594 37.996094 803.402344 38.980469 804.59375 C 39.960938 805.789062 40.96875 806.960938 42.007812 808.105469 C 43.046875 809.25 44.113281 810.367188 45.207031 811.460938 L 685.410156 1451.570312 C 686.5 1452.664062 687.621094 1453.730469 688.765625 1454.765625 C 689.910156 1455.804688 691.078125 1456.8125 692.273438 1457.792969 C 693.46875 1458.773438 694.683594 1459.726562 695.925781 1460.644531 C 697.167969 1461.566406 698.429688 1462.457031 699.714844 1463.316406 C 701 1464.175781 702.304688 1465 703.628906 1465.796875 C 704.953125 1466.589844 706.300781 1467.351562 707.660156 1468.082031 C 709.023438 1468.808594 710.402344 1469.503906 711.800781 1470.164062 C 713.199219 1470.824219 714.609375 1471.453125 716.039062 1472.042969 C 717.464844 1472.636719 718.90625 1473.191406 720.359375 1473.710938 C 721.816406 1474.234375 723.28125 1474.71875 724.761719 1475.164062 C 726.238281 1475.613281 727.730469 1476.027344 729.226562 1476.402344 C 730.726562 1476.777344 732.234375 1477.117188 733.75 1477.417969 C 735.265625 1477.71875 736.785156 1477.984375 738.316406 1478.210938 C 739.84375 1478.4375 741.375 1478.625 742.914062 1478.777344 C 744.453125 1478.929688 745.992188 1479.042969 747.535156 1479.121094 C 749.078125 1479.195312 750.625 1479.234375 752.167969 1479.234375 C 753.714844 1479.234375 755.257812 1479.195312 756.800781 1479.121094 C 758.347656 1479.042969 759.886719 1478.929688 761.425781 1478.777344 C 762.960938 1478.625 764.496094 1478.4375 766.023438 1478.210938 C 767.550781 1477.984375 769.074219 1477.71875 770.589844 1477.417969 C 772.105469 1477.117188 773.613281 1476.777344 775.113281 1476.402344 C 776.609375 1476.027344 778.097656 1475.613281 779.578125 1475.164062 C 781.054688 1474.71875 782.523438 1474.234375 783.976562 1473.710938 C 785.433594 1473.191406 786.875 1472.636719 788.300781 1472.042969 C 789.730469 1471.453125 791.140625 1470.824219 792.539062 1470.164062 C 793.933594 1469.503906 795.316406 1468.808594 796.675781 1468.082031 C 798.039062 1467.351562 799.382812 1466.589844 800.710938 1465.796875 C 802.035156 1465 803.339844 1464.175781 804.625 1463.316406 C 805.910156 1462.457031 807.171875 1461.566406 808.414062 1460.644531 C 809.652344 1459.726562 810.871094 1458.773438 812.066406 1457.792969 C 813.257812 1456.8125 814.429688 1455.804688 815.574219 1454.765625 C 816.71875 1453.730469 817.835938 1452.664062 818.929688 1451.570312 L 1456.152344 815.355469 C 1457.246094 814.261719 1458.3125 813.144531 1459.351562 812 C 1460.390625 810.855469 1461.402344 809.683594 1462.382812 808.488281 C 1463.363281 807.296875 1464.316406 806.078125 1465.234375 804.835938 C 1466.15625 803.59375 1467.046875 802.332031 1467.90625 801.046875 C 1468.765625 799.761719 1469.59375 798.457031 1470.390625 797.132812 C 1471.183594 795.804688 1471.945312 794.460938 1472.675781 793.097656 C 1473.40625 791.734375 1474.101562 790.355469 1474.761719 788.957031 C 1475.425781 787.558594 1476.050781 786.148438 1476.644531 784.71875 C 1477.234375 783.292969 1477.792969 781.847656 1478.3125 780.394531 C 1478.832031 778.9375 1479.320312 777.472656 1479.769531 775.992188 C 1480.21875 774.511719 1480.628906 773.023438 1481.003906 771.523438 C 1481.382812 770.023438 1481.71875 768.515625 1482.023438 767 C 1482.324219 765.484375 1482.589844 763.960938 1482.816406 762.433594 C 1483.042969 760.902344 1483.230469 759.371094 1483.382812 757.832031 C 1483.535156 756.292969 1483.648438 754.75 1483.722656 753.207031 C 1483.800781 751.664062 1483.839844 750.117188 1483.839844 748.570312 C 1483.839844 747.027344 1483.800781 745.480469 1483.722656 743.9375 C 1483.648438 742.394531 1483.535156 740.851562 1483.382812 739.3125 C 1483.230469 737.773438 1483.042969 736.242188 1482.816406 734.710938 C 1482.589844 733.183594 1482.324219 731.660156 1482.023438 730.144531 C 1481.71875 728.628906 1481.382812 727.121094 1481.003906 725.621094 C 1480.628906 724.121094 1480.21875 722.632812 1479.769531 721.152344 C 1479.320312 719.671875 1478.832031 718.207031 1478.3125 716.75 C 1477.792969 715.292969 1477.234375 713.851562 1476.644531 712.425781 C 1476.050781 710.996094 1475.425781 709.585938 1474.761719 708.1875 C 1474.101562 706.789062 1473.40625 705.410156 1472.675781 704.046875 C 1471.945312 702.683594 1471.183594 701.339844 1470.390625 700.011719 C 1469.59375 698.6875 1468.765625 697.382812 1467.90625 696.097656 C 1467.046875 694.8125 1466.15625 693.550781 1465.234375 692.308594 C 1464.316406 691.066406 1463.363281 689.847656 1462.382812 688.652344 C 1461.402344 687.460938 1460.390625 686.289062 1459.351562 685.144531 C 1458.3125 684 1457.246094 682.882812 1456.152344 681.789062 " fill-opacity="1" fill-rule="nonzero"/></g></svg>