<svg xmlns="http://www.w3.org/2000/svg" xmlns:xlink="http://www.w3.org/1999/xlink" width="2000" zoomAndPan="magnify" viewBox="0 0 1500 1499.999933" height="2000" preserveAspectRatio="xMidYMid meet" version="1.0"><defs><clipPath id="b999b62ae6"><path d="M 126.8125 42 L 1373.3125 42 L 1373.3125 1457 L 126.8125 1457 Z M 126.8125 42 " clip-rule="nonzero"/></clipPath></defs><g clip-path="url(#b999b62ae6)"><path fill="#e44d26" d="M 239.972656 1315.632812 L 126.460938 42.878906 L 1373.667969 42.878906 L 1260.070312 1315.457031 L 749.269531 1456.957031 Z M 239.972656 1315.632812 " fill-opacity="1" fill-rule="nonzero"/></g><path fill="#f16529" d="M 1162.78125 1234.410156 L 1259.890625 146.949219 L 750.0625 146.949219 L 750.0625 1348.820312 Z M 1162.78125 1234.410156 " fill-opacity="1" fill-rule="nonzero"/><path fill="#ebebeb" d="M 749.535156 303.03125 L 358.523438 303.03125 L 400.648438 775.085938 L 750.0625 775.085938 L 750.0625 619 L 543.464844 619 L 529.1875 459.160156 L 750.0625 459.160156 L 750.0625 303.03125 Z M 750.0625 1023.882812 L 749.402344 1024.058594 L 575.511719 977.128906 L 564.460938 852.640625 L 407.628906 852.640625 L 429.511719 1097.726562 L 749.355469 1186.109375 L 750.0625 1185.886719 Z M 750.0625 1023.882812 " fill-opacity="1" fill-rule="nonzero"/><path fill="#ffffff" d="M 749.535156 775.085938 L 941.8125 775.085938 L 924.132812 977.480469 L 749.976562 1024.457031 L 749.976562 1186.859375 L 1070.085938 1098.167969 L 1112.964844 618.914062 L 750.0625 618.914062 Z M 1136.921875 344.925781 L 1140.632812 303.03125 L 749.445312 303.03125 L 749.445312 459.117188 L 1126.578125 459.117188 L 1129.671875 424.027344 Z M 1136.921875 344.925781 " fill-opacity="1" fill-rule="nonzero"/></svg>