<svg xmlns="http://www.w3.org/2000/svg" xmlns:xlink="http://www.w3.org/1999/xlink" width="2000" zoomAndPan="magnify" viewBox="0 0 1500 1499.999933" height="2000" preserveAspectRatio="xMidYMid meet" version="1.0"><path fill="#8cc84b" d="M 687.351562 19.953125 C 724.742188 -1.214844 772.417969 -1.308594 808.878906 19.953125 L 1367.152344 334.578125 C 1402.066406 354.207031 1425.4375 393.128906 1425.109375 433.363281 L 1425.109375 1064.207031 C 1425.34375 1106.121094 1399.683594 1145.886719 1362.851562 1165.140625 L 807.570312 1478.316406 C 805.207031 1479.621094 802.804688 1480.847656 800.363281 1481.992188 C 797.921875 1483.136719 795.441406 1484.195312 792.929688 1485.175781 C 790.417969 1486.15625 787.875 1487.050781 785.300781 1487.859375 C 782.726562 1488.671875 780.132812 1489.394531 777.511719 1490.03125 C 774.890625 1490.671875 772.25 1491.21875 769.59375 1491.679688 C 766.933594 1492.144531 764.265625 1492.515625 761.582031 1492.800781 C 758.898438 1493.082031 756.210938 1493.277344 753.515625 1493.382812 C 750.820312 1493.488281 748.125 1493.503906 745.429688 1493.429688 C 742.730469 1493.351562 740.039062 1493.1875 737.355469 1492.9375 C 734.671875 1492.683594 731.996094 1492.339844 729.332031 1491.90625 C 726.671875 1491.476562 724.027344 1490.957031 721.398438 1490.347656 C 718.769531 1489.742188 716.164062 1489.046875 713.582031 1488.265625 C 711 1487.484375 708.449219 1486.617188 705.925781 1485.667969 C 703.398438 1484.714844 700.910156 1483.679688 698.457031 1482.5625 C 696 1481.445312 693.585938 1480.25 691.210938 1478.972656 C 688.835938 1477.695312 686.503906 1476.339844 684.21875 1474.90625 L 517.585938 1378.644531 C 506.230469 1371.867188 493.46875 1366.496094 485.429688 1355.515625 C 492.535156 1345.980469 505.152344 1344.765625 515.4375 1340.5625 C 538.621094 1333.175781 559.839844 1321.867188 581.15625 1309.90625 C 586.53125 1306.167969 593.121094 1307.570312 598.261719 1310.933594 L 740.355469 1393.082031 C 750.496094 1398.925781 760.78125 1391.214844 769.472656 1386.308594 L 1314.707031 1078.691406 C 1321.4375 1075.421875 1325.179688 1068.316406 1324.617188 1060.933594 L 1324.617188 436.167969 C 1325.367188 427.757812 1320.550781 420.09375 1312.933594 416.683594 L 759.050781 104.859375 C 758.257812 104.3125 757.425781 103.824219 756.5625 103.402344 C 755.695312 102.980469 754.800781 102.621094 753.878906 102.335938 C 752.957031 102.046875 752.023438 101.828125 751.070312 101.679688 C 750.113281 101.535156 749.15625 101.460938 748.191406 101.457031 C 747.226562 101.457031 746.265625 101.527344 745.3125 101.667969 C 744.359375 101.8125 743.421875 102.027344 742.5 102.308594 C 741.578125 102.59375 740.683594 102.945312 739.8125 103.367188 C 738.945312 103.785156 738.113281 104.269531 737.316406 104.8125 L 184.230469 417.289062 C 176.75 420.699219 171.609375 428.269531 172.542969 436.683594 L 172.542969 1061.449219 C 171.890625 1068.832031 175.816406 1075.792969 182.59375 1078.972656 L 330.390625 1162.382812 C 358.152344 1177.335938 392.226562 1185.746094 422.796875 1174.765625 C 424.457031 1174.140625 426.089844 1173.453125 427.699219 1172.703125 C 429.304688 1171.953125 430.882812 1171.144531 432.429688 1170.277344 C 433.976562 1169.40625 435.488281 1168.480469 436.964844 1167.496094 C 438.4375 1166.511719 439.875 1165.472656 441.273438 1164.382812 C 442.671875 1163.289062 444.023438 1162.144531 445.335938 1160.949219 C 446.644531 1159.753906 447.90625 1158.507812 449.125 1157.21875 C 450.339844 1155.925781 451.503906 1154.589844 452.621094 1153.210938 C 453.734375 1151.832031 454.792969 1150.410156 455.800781 1148.949219 C 456.808594 1147.488281 457.757812 1145.992188 458.652344 1144.460938 C 459.542969 1142.929688 460.378906 1141.363281 461.152344 1139.769531 C 461.925781 1138.171875 462.640625 1136.550781 463.289062 1134.902344 C 463.941406 1133.25 464.527344 1131.578125 465.050781 1129.882812 C 465.578125 1128.191406 466.035156 1126.476562 466.429688 1124.75 C 466.824219 1123.019531 467.152344 1121.277344 467.414062 1119.523438 C 467.675781 1117.769531 467.871094 1116.007812 468 1114.238281 C 468.128906 1112.46875 468.1875 1110.699219 468.179688 1108.925781 L 468.320312 487.898438 C 467.667969 478.691406 476.359375 471.074219 485.289062 472.007812 L 556.335938 472.007812 C 565.683594 471.777344 573.023438 481.683594 571.761719 490.933594 L 571.621094 1115.886719 C 571.667969 1171.402344 548.855469 1231.777344 497.488281 1259.019531 C 434.199219 1291.730469 355.957031 1284.859375 293.417969 1253.410156 L 134.496094 1165.5625 C 97.105469 1146.867188 72.003906 1106.496094 72.238281 1064.625 L 72.238281 433.785156 C 72.257812 431.234375 72.363281 428.691406 72.550781 426.148438 C 72.738281 423.605469 73.011719 421.074219 73.367188 418.550781 C 73.726562 416.027344 74.167969 413.519531 74.691406 411.023438 C 75.214844 408.53125 75.820312 406.054688 76.511719 403.601562 C 77.199219 401.148438 77.96875 398.71875 78.820312 396.316406 C 79.667969 393.914062 80.597656 391.539062 81.605469 389.199219 C 82.613281 386.859375 83.699219 384.554688 84.859375 382.285156 C 86.023438 380.015625 87.257812 377.789062 88.566406 375.601562 C 89.878906 373.414062 91.257812 371.273438 92.710938 369.179688 C 94.164062 367.085938 95.683594 365.039062 97.269531 363.046875 C 98.859375 361.050781 100.511719 359.113281 102.230469 357.230469 C 103.945312 355.34375 105.726562 353.519531 107.5625 351.753906 C 109.402344 349.988281 111.296875 348.285156 113.25 346.648438 C 115.199219 345.007812 117.207031 343.433594 119.261719 341.925781 C 121.316406 340.421875 123.421875 338.984375 125.574219 337.617188 C 127.726562 336.253906 129.921875 334.957031 132.160156 333.738281 Z M 848.328125 457.242188 C 929.046875 452.570312 1015.472656 454.160156 1088.109375 493.925781 C 1144.335938 524.390625 1175.515625 588.316406 1176.542969 650.839844 C 1174.953125 659.253906 1166.164062 663.925781 1158.125 663.316406 C 1134.753906 663.269531 1111.292969 663.644531 1087.828125 663.175781 C 1077.871094 663.550781 1072.121094 654.390625 1070.859375 645.605469 C 1064.128906 615.699219 1047.816406 586.121094 1019.679688 571.683594 C 976.492188 550.046875 926.382812 551.121094 879.269531 551.589844 C 844.867188 553.457031 807.894531 556.402344 778.777344 576.589844 C 756.339844 591.914062 749.609375 623.316406 757.601562 647.710938 C 765.082031 665.605469 785.789062 671.355469 802.660156 676.683594 C 899.976562 702.101562 1003.039062 700.046875 1098.53125 733.085938 C 1138.027344 746.730469 1176.683594 773.269531 1190.238281 814.625 C 1207.90625 870.046875 1200.191406 936.308594 1160.789062 980.792969 C 1128.820312 1017.429688 1082.265625 1036.867188 1035.757812 1048.175781 C 973.921875 1061.960938 909.792969 1062.289062 847.019531 1056.121094 C 787.984375 1049.390625 726.566406 1033.878906 680.992188 993.691406 C 642.011719 959.859375 623.035156 907.148438 624.90625 856.308594 C 625.371094 847.710938 633.925781 841.730469 642.199219 842.429688 L 712.308594 842.429688 C 721.753906 841.777344 728.667969 849.90625 729.136719 858.785156 C 733.484375 886.820312 744.1875 917.195312 769.054688 933.550781 C 817.011719 964.484375 877.164062 962.335938 932.039062 963.222656 C 977.519531 961.214844 1028.558594 960.605469 1065.71875 930.515625 C 1085.351562 913.363281 1091.101562 884.71875 1085.816406 860.046875 C 1080.070312 839.207031 1057.773438 829.53125 1039.078125 822.664062 C 943.023438 792.289062 838.792969 803.316406 743.671875 768.925781 C 705.066406 755.28125 667.71875 729.484375 652.902344 689.8125 C 632.195312 633.738281 641.683594 564.253906 685.292969 521.261719 C 727.359375 478.503906 789.058594 462.007812 847.484375 456.121094 Z M 848.328125 457.242188 " fill-opacity="1" fill-rule="nonzero"/></svg>