<svg xmlns="http://www.w3.org/2000/svg" xmlns:xlink="http://www.w3.org/1999/xlink" width="2000" zoomAndPan="magnify" viewBox="0 0 1500 1499.999933" height="2000" preserveAspectRatio="xMidYMid meet" version="1.0"><defs><clipPath id="e73ed9535e"><path d="M 653.398438 704.398438 L 677.816406 704.398438 L 677.816406 772.199219 L 653.398438 772.199219 Z M 653.398438 704.398438 " clip-rule="nonzero"/></clipPath><clipPath id="240c12d1f6"><path d="M 0.398438 0.398438 L 24.816406 0.398438 L 24.816406 68.199219 L 0.398438 68.199219 Z M 0.398438 0.398438 " clip-rule="nonzero"/></clipPath><clipPath id="47c64545d7"><rect x="0" width="25" y="0" height="69"/></clipPath><clipPath id="e14b4b2a98"><path d="M 661.792969 742.292969 L 729.59375 742.292969 L 729.59375 766.707031 L 661.792969 766.707031 Z M 661.792969 742.292969 " clip-rule="nonzero"/></clipPath><clipPath id="9d43ea3382"><path d="M 0.792969 0.292969 L 68.59375 0.292969 L 68.59375 24.707031 L 0.792969 24.707031 Z M 0.792969 0.292969 " clip-rule="nonzero"/></clipPath><clipPath id="a962bd25b4"><rect x="0" width="69" y="0" height="25"/></clipPath></defs><g clip-path="url(#e73ed9535e)"><g transform="matrix(1, 0, 0, 1, 653, 704)"><g clip-path="url(#47c64545d7)"><g clip-path="url(#240c12d1f6)"><path fill="#ffffff" d="M 0.398438 0.398438 L 24.816406 0.398438 L 24.816406 68.214844 L 0.398438 68.214844 Z M 0.398438 0.398438 " fill-opacity="1" fill-rule="nonzero"/></g></g></g></g><g clip-path="url(#e14b4b2a98)"><g transform="matrix(1, 0, 0, 1, 661, 742)"><g clip-path="url(#a962bd25b4)"><g clip-path="url(#9d43ea3382)"><path fill="#ffffff" d="M 68.59375 0.292969 L 68.59375 24.707031 L 0.78125 24.707031 L 0.78125 0.292969 Z M 68.59375 0.292969 " fill-opacity="1" fill-rule="nonzero"/></g></g></g></g><path fill="#53c1de" d="M 883.945312 735.632812 C 883.945312 663.894531 823.980469 605.726562 750 605.726562 C 676.03125 605.726562 616.054688 663.894531 616.054688 735.632812 C 616.054688 807.382812 676.03125 865.542969 750 865.542969 C 823.980469 865.542969 883.945312 807.382812 883.945312 735.632812 Z M 883.945312 735.632812 " fill-opacity="1" fill-rule="nonzero"/><path fill="#53c1de" d="M 1185.019531 494.457031 C 1213.304688 382.980469 1248.859375 176.261719 1123.519531 106.175781 C 998.765625 36.398438 836.417969 170.105469 750.695312 250.367188 C 665.21875 170.90625 498.316406 37.769531 373.082031 108.074219 C 248.375 178.089844 286.832031 381.382812 315.746094 493.558594 C 199.414062 525.601562 0 594.621094 0 735.632812 C 0 876.246094 199.207031 951.335938 314.847656 983.347656 C 285.828125 1096.144531 249.296875 1296.53125 374.164062 1366.390625 C 499.863281 1436.683594 666.25 1306.714844 752.769531 1225.578125 C 839.042969 1306.308594 999.828125 1437.128906 1124.609375 1367.074219 C 1249.78125 1296.800781 1217.179688 1092.851562 1188.265625 980.027344 C 1300.363281 947.945312 1500 874.488281 1500 735.632812 C 1500 595.976562 1299.515625 526.394531 1185.019531 494.457031 Z M 1170.808594 920.238281 C 1151.824219 861.949219 1126.199219 799.96875 1094.855469 735.941406 C 1124.773438 673.425781 1149.40625 612.242188 1167.859375 554.332031 C 1251.792969 577.933594 1435.925781 631.875 1435.925781 735.632812 C 1435.925781 840.363281 1259.230469 894.816406 1170.808594 920.238281 Z M 1092.5 1313.292969 C 999.398438 1365.554688 861.105469 1240.453125 797.390625 1181 C 839.660156 1136.164062 881.898438 1084.039062 923.125 1026.160156 C 995.644531 1019.921875 1064.148438 1009.71875 1126.28125 995.792969 C 1146.628906 1075.597656 1186.011719 1260.792969 1092.5 1313.292969 Z M 406.179688 1312.546875 C 313.070312 1260.476562 355.628906 1081.660156 376.976562 998.574219 C 438.417969 1011.757812 506.429688 1021.238281 579.121094 1026.953125 C 620.613281 1083.589844 664.078125 1135.648438 707.878906 1181.242188 C 653.765625 1232.011719 499.726562 1364.855469 406.179688 1312.546875 Z M 64.074219 735.632812 C 64.074219 630.507812 247.101562 576.960938 332.953125 553.417969 C 351.726562 612.628906 376.347656 674.539062 406.0625 737.148438 C 375.960938 800.683594 350.988281 863.578125 332.042969 923.488281 C 250.183594 900.761719 64.074219 840.820312 64.074219 735.632812 Z M 405.183594 161.859375 C 498.675781 109.378906 643.734375 237.195312 705.796875 294.726562 C 662.21875 340.109375 619.15625 391.773438 578.015625 448.085938 C 507.46875 454.425781 439.9375 464.609375 377.855469 478.253906 C 354.5625 387.78125 311.796875 214.285156 405.183594 161.859375 Z M 968.964844 515.632812 C 1016.824219 521.488281 1062.679688 529.28125 1105.734375 538.8125 C 1092.808594 578.996094 1076.699219 621.011719 1057.726562 664.082031 C 1030.21875 613.46875 1000.695312 563.871094 968.964844 515.632812 Z M 750.714844 339.136719 C 780.269531 370.1875 809.871094 404.863281 838.988281 442.484375 C 779.925781 439.773438 720.765625 439.761719 661.699219 442.445312 C 690.84375 405.171875 720.699219 370.546875 750.714844 339.136719 Z M 442.824219 664.039062 C 424.164062 621.117188 408.199219 578.914062 395.160156 538.160156 C 437.960938 528.871094 483.601562 521.28125 531.148438 515.519531 C 499.328125 563.652344 469.855469 613.230469 442.824219 664.039062 Z M 532.515625 960.183594 C 483.394531 954.867188 437.0625 947.660156 394.277344 938.625 C 407.523438 897.15625 423.839844 854.042969 442.898438 810.195312 C 470.300781 861.535156 500.226562 911.59375 532.515625 960.183594 Z M 752.488281 1136.519531 C 722.121094 1104.734375 691.824219 1069.582031 662.238281 1031.769531 C 721.640625 1034.03125 781.15625 1034.035156 840.550781 1031.464844 C 811.339844 1069.964844 781.84375 1105.171875 752.488281 1136.519531 Z M 1058.335938 807.964844 C 1078.386719 852.289062 1095.285156 895.164062 1108.710938 935.9375 C 1065.214844 945.5625 1018.261719 953.316406 968.785156 959.070312 C 1000.75 909.917969 1030.746094 859.550781 1058.335938 807.964844 Z M 887.363281 966.605469 C 796.503906 972.902344 705.078125 972.832031 614.191406 967.117188 C 562.546875 893.953125 516.570312 817.007812 476.886719 737.128906 C 516.378906 657.410156 562.019531 580.617188 613.421875 507.566406 C 704.375 500.898438 795.890625 500.878906 886.84375 507.605469 C 937.804688 580.652344 983.375 657.246094 1023.785156 736.242188 C 983.855469 815.917969 937.976562 892.871094 887.363281 966.605469 Z M 1091.515625 160.011719 C 1185.03125 212.324219 1143.40625 398.109375 1122.976562 478.898438 C 1060.746094 464.96875 993.164062 454.605469 922.414062 448.164062 C 881.195312 391.246094 838.488281 339.488281 795.621094 294.695312 C 858.476562 235.925781 998.90625 108.214844 1091.515625 160.011719 Z M 1091.515625 160.011719 " fill-opacity="1" fill-rule="evenodd"/></svg>