<svg xmlns="http://www.w3.org/2000/svg" xmlns:xlink="http://www.w3.org/1999/xlink" width="2000" zoomAndPan="magnify" viewBox="0 0 1500 1499.999933" height="2000" preserveAspectRatio="xMidYMid meet" version="1.0"><defs><clipPath id="c97bb6ac16"><path d="M 23.0625 18.75 L 1477.3125 18.75 L 1477.3125 1473 L 23.0625 1473 Z M 23.0625 18.75 " clip-rule="nonzero"/></clipPath><clipPath id="a4d61e1c1f"><path d="M 165.078125 18.75 L 1335.292969 18.75 C 1337.617188 18.75 1339.941406 18.808594 1342.261719 18.921875 C 1344.585938 19.035156 1346.902344 19.207031 1349.214844 19.433594 C 1351.527344 19.660156 1353.832031 19.945312 1356.132812 20.285156 C 1358.429688 20.628906 1360.722656 21.023438 1363 21.480469 C 1365.28125 21.933594 1367.546875 22.441406 1369.800781 23.007812 C 1372.054688 23.570312 1374.296875 24.191406 1376.519531 24.863281 C 1378.742188 25.539062 1380.949219 26.269531 1383.136719 27.050781 C 1385.328125 27.835938 1387.496094 28.671875 1389.640625 29.558594 C 1391.789062 30.449219 1393.914062 31.390625 1396.015625 32.386719 C 1398.113281 33.378906 1400.191406 34.421875 1402.242188 35.519531 C 1404.289062 36.613281 1406.3125 37.761719 1408.304688 38.953125 C 1410.300781 40.148438 1412.261719 41.394531 1414.195312 42.683594 C 1416.128906 43.976562 1418.027344 45.3125 1419.894531 46.699219 C 1421.761719 48.082031 1423.59375 49.511719 1425.386719 50.984375 C 1427.183594 52.460938 1428.945312 53.976562 1430.667969 55.539062 C 1432.390625 57.101562 1434.070312 58.703125 1435.714844 60.34375 C 1437.359375 61.988281 1438.960938 63.671875 1440.523438 65.394531 C 1442.082031 67.117188 1443.601562 68.875 1445.074219 70.671875 C 1446.550781 72.46875 1447.976562 74.300781 1449.363281 76.167969 C 1450.746094 78.035156 1452.085938 79.933594 1453.375 81.867188 C 1454.667969 83.800781 1455.910156 85.761719 1457.105469 87.753906 C 1458.300781 89.75 1459.445312 91.769531 1460.542969 93.820312 C 1461.636719 95.871094 1462.683594 97.945312 1463.675781 100.046875 C 1464.667969 102.148438 1465.609375 104.273438 1466.5 106.417969 C 1467.390625 108.566406 1468.226562 110.734375 1469.007812 112.921875 C 1469.792969 115.109375 1470.519531 117.316406 1471.195312 119.542969 C 1471.871094 121.765625 1472.488281 124.003906 1473.054688 126.257812 C 1473.621094 128.515625 1474.128906 130.78125 1474.582031 133.058594 C 1475.035156 135.339844 1475.433594 137.628906 1475.773438 139.929688 C 1476.113281 142.226562 1476.398438 144.535156 1476.628906 146.847656 C 1476.855469 149.160156 1477.027344 151.476562 1477.140625 153.796875 C 1477.253906 156.121094 1477.3125 158.441406 1477.3125 160.765625 L 1477.3125 1330.984375 C 1477.3125 1333.308594 1477.253906 1335.628906 1477.140625 1337.953125 C 1477.027344 1340.273438 1476.855469 1342.589844 1476.628906 1344.902344 C 1476.398438 1347.214844 1476.113281 1349.523438 1475.773438 1351.820312 C 1475.433594 1354.121094 1475.035156 1356.410156 1474.582031 1358.6875 C 1474.128906 1360.96875 1473.621094 1363.234375 1473.054688 1365.492188 C 1472.488281 1367.746094 1471.871094 1369.984375 1471.195312 1372.207031 C 1470.519531 1374.433594 1469.792969 1376.640625 1469.007812 1378.828125 C 1468.226562 1381.015625 1467.390625 1383.183594 1466.5 1385.332031 C 1465.609375 1387.476562 1464.667969 1389.601562 1463.675781 1391.703125 C 1462.683594 1393.804688 1461.636719 1395.878906 1460.542969 1397.929688 C 1459.445312 1399.980469 1458.300781 1402 1457.105469 1403.996094 C 1455.910156 1405.988281 1454.667969 1407.949219 1453.375 1409.882812 C 1452.085938 1411.816406 1450.746094 1413.714844 1449.363281 1415.582031 C 1447.976562 1417.449219 1446.550781 1419.28125 1445.074219 1421.078125 C 1443.601562 1422.875 1442.082031 1424.632812 1440.523438 1426.355469 C 1438.960938 1428.078125 1437.359375 1429.761719 1435.714844 1431.402344 C 1434.070312 1433.046875 1432.390625 1434.648438 1430.667969 1436.210938 C 1428.945312 1437.769531 1427.183594 1439.289062 1425.386719 1440.761719 C 1423.59375 1442.238281 1421.761719 1443.667969 1419.894531 1445.050781 C 1418.027344 1446.4375 1416.125 1447.773438 1414.195312 1449.066406 C 1412.261719 1450.355469 1410.296875 1451.601562 1408.304688 1452.796875 C 1406.3125 1453.988281 1404.289062 1455.136719 1402.242188 1456.230469 C 1400.191406 1457.328125 1398.113281 1458.371094 1396.015625 1459.363281 C 1393.914062 1460.359375 1391.789062 1461.300781 1389.640625 1462.1875 C 1387.496094 1463.078125 1385.328125 1463.914062 1383.136719 1464.699219 C 1380.949219 1465.480469 1378.742188 1466.210938 1376.519531 1466.882812 C 1374.296875 1467.558594 1372.054688 1468.179688 1369.800781 1468.742188 C 1367.546875 1469.308594 1365.28125 1469.816406 1363 1470.269531 C 1360.722656 1470.722656 1358.429688 1471.121094 1356.132812 1471.460938 C 1353.832031 1471.804688 1351.527344 1472.089844 1349.214844 1472.316406 C 1346.902344 1472.542969 1344.585938 1472.714844 1342.261719 1472.828125 C 1339.941406 1472.941406 1337.617188 1473 1335.292969 1473 L 165.078125 1473 C 162.753906 1473 160.429688 1472.941406 158.109375 1472.828125 C 155.789062 1472.714844 153.46875 1472.542969 151.15625 1472.316406 C 148.84375 1472.089844 146.539062 1471.804688 144.238281 1471.460938 C 141.941406 1471.121094 139.652344 1470.722656 137.371094 1470.269531 C 135.09375 1469.816406 132.824219 1469.308594 130.570312 1468.742188 C 128.316406 1468.179688 126.078125 1467.558594 123.851562 1466.882812 C 121.628906 1466.210938 119.421875 1465.480469 117.234375 1464.699219 C 115.046875 1463.914062 112.878906 1463.078125 110.730469 1462.1875 C 108.582031 1461.300781 106.457031 1460.359375 104.359375 1459.363281 C 102.257812 1458.371094 100.179688 1457.328125 98.132812 1456.230469 C 96.082031 1455.136719 94.058594 1453.988281 92.066406 1452.796875 C 90.074219 1451.601562 88.109375 1450.355469 86.175781 1449.066406 C 84.246094 1447.773438 82.34375 1446.4375 80.476562 1445.050781 C 78.613281 1443.667969 76.78125 1442.238281 74.984375 1440.761719 C 73.1875 1439.289062 71.425781 1437.769531 69.703125 1436.210938 C 67.984375 1434.648438 66.300781 1433.046875 64.65625 1431.402344 C 63.011719 1429.761719 61.410156 1428.078125 59.851562 1426.355469 C 58.289062 1424.632812 56.773438 1422.875 55.296875 1421.078125 C 53.824219 1419.28125 52.394531 1417.449219 51.007812 1415.582031 C 49.625 1413.714844 48.285156 1411.816406 46.996094 1409.882812 C 45.703125 1407.949219 44.460938 1405.988281 43.265625 1403.996094 C 42.070312 1402 40.925781 1399.980469 39.832031 1397.929688 C 38.734375 1395.878906 37.691406 1393.804688 36.695312 1391.703125 C 35.703125 1389.601562 34.761719 1387.476562 33.871094 1385.332031 C 32.980469 1383.183594 32.144531 1381.015625 31.363281 1378.828125 C 30.578125 1376.640625 29.851562 1374.433594 29.175781 1372.207031 C 28.5 1369.984375 27.882812 1367.746094 27.316406 1365.492188 C 26.753906 1363.234375 26.242188 1360.96875 25.789062 1358.6875 C 25.335938 1356.410156 24.9375 1354.121094 24.597656 1351.820312 C 24.257812 1349.523438 23.972656 1347.214844 23.746094 1344.902344 C 23.515625 1342.589844 23.347656 1340.273438 23.230469 1337.953125 C 23.117188 1335.628906 23.0625 1333.308594 23.0625 1330.984375 L 23.0625 160.765625 C 23.0625 158.441406 23.117188 156.121094 23.230469 153.796875 C 23.347656 151.476562 23.515625 149.160156 23.746094 146.847656 C 23.972656 144.535156 24.257812 142.226562 24.597656 139.929688 C 24.9375 137.628906 25.335938 135.339844 25.789062 133.058594 C 26.242188 130.78125 26.753906 128.515625 27.316406 126.257812 C 27.882812 124.003906 28.5 121.765625 29.175781 119.542969 C 29.851562 117.316406 30.578125 115.109375 31.363281 112.921875 C 32.144531 110.734375 32.980469 108.566406 33.871094 106.417969 C 34.761719 104.273438 35.703125 102.148438 36.695312 100.046875 C 37.691406 97.945312 38.734375 95.871094 39.832031 93.820312 C 40.925781 91.769531 42.070312 89.75 43.265625 87.753906 C 44.460938 85.761719 45.703125 83.800781 46.996094 81.867188 C 48.285156 79.933594 49.625 78.035156 51.007812 76.167969 C 52.394531 74.300781 53.824219 72.46875 55.296875 70.671875 C 56.773438 68.875 58.289062 67.117188 59.851562 65.394531 C 61.410156 63.671875 63.011719 61.988281 64.65625 60.34375 C 66.300781 58.703125 67.984375 57.101562 69.703125 55.539062 C 71.425781 53.976562 73.1875 52.460938 74.984375 50.984375 C 76.78125 49.511719 78.613281 48.082031 80.476562 46.699219 C 82.34375 45.3125 84.246094 43.976562 86.175781 42.683594 C 88.109375 41.394531 90.074219 40.148438 92.066406 38.953125 C 94.058594 37.761719 96.082031 36.613281 98.132812 35.519531 C 100.179688 34.421875 102.257812 33.378906 104.359375 32.386719 C 106.457031 31.390625 108.582031 30.449219 110.730469 29.558594 C 112.878906 28.671875 115.046875 27.835938 117.234375 27.050781 C 119.421875 26.269531 121.628906 25.539062 123.851562 24.863281 C 126.078125 24.191406 128.316406 23.570312 130.570312 23.007812 C 132.824219 22.441406 135.09375 21.933594 137.371094 21.480469 C 139.652344 21.023438 141.941406 20.628906 144.238281 20.285156 C 146.539062 19.945312 148.84375 19.660156 151.15625 19.433594 C 153.46875 19.207031 155.789062 19.035156 158.109375 18.921875 C 160.429688 18.808594 162.753906 18.75 165.078125 18.75 Z M 165.078125 18.75 " clip-rule="nonzero"/></clipPath><linearGradient x1="0.5" gradientTransform="matrix(1454.249935, 0, 0, 1454.249935, 23.060974, 18.749979)" y1="-0.000000000537219" x2="0.5" gradientUnits="userSpaceOnUse" y2="1" id="08622ee57e"><stop stop-opacity="1" stop-color="rgb(0%, 56.858826%, 90.19928%)" offset="0"/><stop stop-opacity="1" stop-color="rgb(0%, 56.785583%, 90.078735%)" offset="0.015625"/><stop stop-opacity="1" stop-color="rgb(0%, 56.639099%, 89.840698%)" offset="0.03125"/><stop stop-opacity="1" stop-color="rgb(0%, 56.491089%, 89.601135%)" offset="0.046875"/><stop stop-opacity="1" stop-color="rgb(0%, 56.344604%, 89.361572%)" offset="0.0625"/><stop stop-opacity="1" stop-color="rgb(0%, 56.196594%, 89.123535%)" offset="0.078125"/><stop stop-opacity="1" stop-color="rgb(0%, 56.05011%, 88.883972%)" offset="0.09375"/><stop stop-opacity="1" stop-color="rgb(0%, 55.903625%, 88.644409%)" offset="0.109375"/><stop stop-opacity="1" stop-color="rgb(0%, 55.755615%, 88.406372%)" offset="0.125"/><stop stop-opacity="1" stop-color="rgb(0%, 55.609131%, 88.166809%)" offset="0.140625"/><stop stop-opacity="1" stop-color="rgb(0%, 55.462646%, 87.927246%)" offset="0.15625"/><stop stop-opacity="1" stop-color="rgb(0%, 55.314636%, 87.689209%)" offset="0.171875"/><stop stop-opacity="1" stop-color="rgb(0%, 55.168152%, 87.449646%)" offset="0.1875"/><stop stop-opacity="1" stop-color="rgb(0%, 55.021667%, 87.210083%)" offset="0.203125"/><stop stop-opacity="1" stop-color="rgb(0%, 54.873657%, 86.972046%)" offset="0.21875"/><stop stop-opacity="1" stop-color="rgb(0%, 54.727173%, 86.732483%)" offset="0.234375"/><stop stop-opacity="1" stop-color="rgb(0%, 54.580688%, 86.49292%)" offset="0.25"/><stop stop-opacity="1" stop-color="rgb(0%, 54.432678%, 86.254883%)" offset="0.265625"/><stop stop-opacity="1" stop-color="rgb(0%, 54.286194%, 86.01532%)" offset="0.28125"/><stop stop-opacity="1" stop-color="rgb(0%, 54.138184%, 85.775757%)" offset="0.296875"/><stop stop-opacity="1" stop-color="rgb(0%, 53.991699%, 85.53772%)" offset="0.3125"/><stop stop-opacity="1" stop-color="rgb(0%, 53.845215%, 85.298157%)" offset="0.328125"/><stop stop-opacity="1" stop-color="rgb(0%, 53.697205%, 85.058594%)" offset="0.34375"/><stop stop-opacity="1" stop-color="rgb(0%, 53.55072%, 84.820557%)" offset="0.359375"/><stop stop-opacity="1" stop-color="rgb(0%, 53.404236%, 84.580994%)" offset="0.375"/><stop stop-opacity="1" stop-color="rgb(0%, 53.256226%, 84.341431%)" offset="0.390625"/><stop stop-opacity="1" stop-color="rgb(0%, 53.109741%, 84.103394%)" offset="0.40625"/><stop stop-opacity="1" stop-color="rgb(0%, 52.963257%, 83.863831%)" offset="0.421875"/><stop stop-opacity="1" stop-color="rgb(0%, 52.815247%, 83.624268%)" offset="0.4375"/><stop stop-opacity="1" stop-color="rgb(0%, 52.668762%, 83.384705%)" offset="0.453125"/><stop stop-opacity="1" stop-color="rgb(0%, 52.522278%, 83.146667%)" offset="0.46875"/><stop stop-opacity="1" stop-color="rgb(0%, 52.374268%, 82.907104%)" offset="0.484375"/><stop stop-opacity="1" stop-color="rgb(0%, 52.227783%, 82.667542%)" offset="0.5"/><stop stop-opacity="1" stop-color="rgb(0%, 52.079773%, 82.429504%)" offset="0.515625"/><stop stop-opacity="1" stop-color="rgb(0%, 51.933289%, 82.189941%)" offset="0.53125"/><stop stop-opacity="1" stop-color="rgb(0%, 51.786804%, 81.950378%)" offset="0.546875"/><stop stop-opacity="1" stop-color="rgb(0%, 51.638794%, 81.712341%)" offset="0.5625"/><stop stop-opacity="1" stop-color="rgb(0%, 51.49231%, 81.472778%)" offset="0.578125"/><stop stop-opacity="1" stop-color="rgb(0%, 51.345825%, 81.233215%)" offset="0.59375"/><stop stop-opacity="1" stop-color="rgb(0%, 51.197815%, 80.995178%)" offset="0.609375"/><stop stop-opacity="1" stop-color="rgb(0%, 51.051331%, 80.755615%)" offset="0.625"/><stop stop-opacity="1" stop-color="rgb(0%, 50.904846%, 80.516052%)" offset="0.640625"/><stop stop-opacity="1" stop-color="rgb(0%, 50.756836%, 80.278015%)" offset="0.65625"/><stop stop-opacity="1" stop-color="rgb(0%, 50.610352%, 80.038452%)" offset="0.671875"/><stop stop-opacity="1" stop-color="rgb(0%, 50.463867%, 79.798889%)" offset="0.6875"/><stop stop-opacity="1" stop-color="rgb(0%, 50.315857%, 79.560852%)" offset="0.703125"/><stop stop-opacity="1" stop-color="rgb(0%, 50.169373%, 79.321289%)" offset="0.71875"/><stop stop-opacity="1" stop-color="rgb(0%, 50.021362%, 79.081726%)" offset="0.734375"/><stop stop-opacity="1" stop-color="rgb(0%, 49.874878%, 78.843689%)" offset="0.75"/><stop stop-opacity="1" stop-color="rgb(0%, 49.728394%, 78.604126%)" offset="0.765625"/><stop stop-opacity="1" stop-color="rgb(0%, 49.580383%, 78.364563%)" offset="0.78125"/><stop stop-opacity="1" stop-color="rgb(0%, 49.433899%, 78.126526%)" offset="0.796875"/><stop stop-opacity="1" stop-color="rgb(0%, 49.287415%, 77.886963%)" offset="0.8125"/><stop stop-opacity="1" stop-color="rgb(0%, 49.139404%, 77.6474%)" offset="0.828125"/><stop stop-opacity="1" stop-color="rgb(0%, 48.99292%, 77.409363%)" offset="0.84375"/><stop stop-opacity="1" stop-color="rgb(0%, 48.846436%, 77.1698%)" offset="0.859375"/><stop stop-opacity="1" stop-color="rgb(0%, 48.698425%, 76.930237%)" offset="0.875"/><stop stop-opacity="1" stop-color="rgb(0%, 48.551941%, 76.6922%)" offset="0.890625"/><stop stop-opacity="1" stop-color="rgb(0%, 48.403931%, 76.452637%)" offset="0.90625"/><stop stop-opacity="1" stop-color="rgb(0%, 48.257446%, 76.213074%)" offset="0.921875"/><stop stop-opacity="1" stop-color="rgb(0%, 48.110962%, 75.975037%)" offset="0.9375"/><stop stop-opacity="1" stop-color="rgb(0%, 47.962952%, 75.735474%)" offset="0.953125"/><stop stop-opacity="1" stop-color="rgb(0%, 47.816467%, 75.495911%)" offset="0.96875"/><stop stop-opacity="1" stop-color="rgb(0%, 47.669983%, 75.257874%)" offset="0.984375"/><stop stop-opacity="1" stop-color="rgb(0%, 47.521973%, 75.018311%)" offset="1"/></linearGradient></defs><g clip-path="url(#c97bb6ac16)"><g clip-path="url(#a4d61e1c1f)"><path fill="url(#08622ee57e)" d="M 23.0625 18.75 L 23.0625 1473 L 1477.3125 1473 L 1477.3125 18.75 Z M 23.0625 18.75 " fill-rule="nonzero"/></g></g><path fill="#ffffff" d="M 912.878906 207.800781 L 1220.089844 207.800781 C 1221.207031 207.800781 1222.320312 207.828125 1223.433594 207.882812 C 1224.550781 207.9375 1225.660156 208.019531 1226.773438 208.128906 C 1227.882812 208.238281 1228.988281 208.375 1230.09375 208.539062 C 1231.195312 208.703125 1232.296875 208.894531 1233.390625 209.113281 C 1234.484375 209.328125 1235.570312 209.574219 1236.652344 209.84375 C 1237.734375 210.117188 1238.8125 210.414062 1239.878906 210.738281 C 1240.945312 211.0625 1242.003906 211.410156 1243.054688 211.789062 C 1244.105469 212.164062 1245.144531 212.566406 1246.175781 212.992188 C 1247.207031 213.417969 1248.226562 213.871094 1249.234375 214.347656 C 1250.246094 214.824219 1251.242188 215.324219 1252.222656 215.851562 C 1253.207031 216.378906 1254.179688 216.925781 1255.136719 217.5 C 1256.09375 218.074219 1257.035156 218.671875 1257.960938 219.289062 C 1258.890625 219.910156 1259.800781 220.554688 1260.699219 221.21875 C 1261.59375 221.882812 1262.472656 222.566406 1263.335938 223.277344 C 1264.199219 223.984375 1265.042969 224.710938 1265.867188 225.460938 C 1266.695312 226.210938 1267.503906 226.980469 1268.292969 227.769531 C 1269.082031 228.558594 1269.851562 229.363281 1270.597656 230.191406 C 1271.347656 231.019531 1272.078125 231.863281 1272.785156 232.726562 C 1273.492188 233.585938 1274.179688 234.464844 1274.84375 235.363281 C 1275.507812 236.257812 1276.148438 237.171875 1276.769531 238.097656 C 1277.390625 239.027344 1277.988281 239.96875 1278.558594 240.925781 C 1279.132812 241.882812 1279.683594 242.851562 1280.210938 243.835938 C 1280.734375 244.820312 1281.238281 245.816406 1281.714844 246.824219 C 1282.191406 247.832031 1282.640625 248.851562 1283.070312 249.882812 C 1283.496094 250.914062 1283.898438 251.953125 1284.273438 253.003906 C 1284.648438 254.054688 1285 255.113281 1285.324219 256.183594 C 1285.648438 257.25 1285.945312 258.324219 1286.214844 259.40625 C 1286.488281 260.488281 1286.730469 261.578125 1286.949219 262.671875 C 1287.167969 263.765625 1287.355469 264.863281 1287.519531 265.96875 C 1287.683594 267.070312 1287.820312 268.179688 1287.929688 269.289062 C 1288.039062 270.398438 1288.121094 271.511719 1288.175781 272.625 C 1288.230469 273.738281 1288.257812 274.855469 1288.257812 275.96875 L 1288.257812 775.867188 C 1288.257812 776.984375 1288.230469 778.097656 1288.175781 779.214844 C 1288.121094 780.328125 1288.039062 781.441406 1287.929688 782.550781 C 1287.820312 783.660156 1287.683594 784.765625 1287.519531 785.871094 C 1287.355469 786.976562 1287.167969 788.074219 1286.949219 789.167969 C 1286.730469 790.261719 1286.488281 791.351562 1286.214844 792.433594 C 1285.945312 793.515625 1285.648438 794.589844 1285.324219 795.65625 C 1285 796.722656 1284.648438 797.785156 1284.273438 798.832031 C 1283.898438 799.882812 1283.496094 800.925781 1283.070312 801.957031 C 1282.640625 802.984375 1282.191406 804.003906 1281.714844 805.015625 C 1281.238281 806.023438 1280.734375 807.019531 1280.210938 808.003906 C 1279.683594 808.988281 1279.132812 809.957031 1278.558594 810.914062 C 1277.984375 811.871094 1277.390625 812.8125 1276.769531 813.742188 C 1276.148438 814.667969 1275.507812 815.582031 1274.84375 816.476562 C 1274.179688 817.371094 1273.492188 818.25 1272.785156 819.113281 C 1272.078125 819.976562 1271.347656 820.820312 1270.597656 821.648438 C 1269.851562 822.472656 1269.082031 823.28125 1268.292969 824.070312 C 1267.503906 824.859375 1266.695312 825.628906 1265.867188 826.378906 C 1265.042969 827.128906 1264.199219 827.855469 1263.335938 828.5625 C 1262.472656 829.269531 1261.59375 829.957031 1260.699219 830.621094 C 1259.800781 831.285156 1258.890625 831.929688 1257.960938 832.546875 C 1257.035156 833.167969 1256.09375 833.765625 1255.136719 834.339844 C 1254.179688 834.910156 1253.207031 835.460938 1252.222656 835.988281 C 1251.242188 836.511719 1250.246094 837.015625 1249.234375 837.492188 C 1248.226562 837.96875 1247.207031 838.421875 1246.175781 838.847656 C 1245.144531 839.273438 1244.105469 839.675781 1243.054688 840.050781 C 1242.003906 840.429688 1240.945312 840.777344 1239.878906 841.101562 C 1238.8125 841.425781 1237.734375 841.722656 1236.652344 841.992188 C 1235.570312 842.265625 1234.484375 842.507812 1233.390625 842.726562 C 1232.296875 842.945312 1231.195312 843.136719 1230.09375 843.300781 C 1228.988281 843.460938 1227.882812 843.597656 1226.773438 843.707031 C 1225.660156 843.816406 1224.550781 843.898438 1223.433594 843.953125 C 1222.320312 844.007812 1221.207031 844.035156 1220.089844 844.035156 L 912.878906 844.035156 C 911.765625 844.035156 910.648438 844.007812 909.535156 843.953125 C 908.421875 843.898438 907.308594 843.816406 906.199219 843.707031 C 905.089844 843.597656 903.980469 843.460938 902.878906 843.300781 C 901.773438 843.136719 900.675781 842.945312 899.582031 842.726562 C 898.488281 842.507812 897.398438 842.265625 896.316406 841.992188 C 895.234375 841.722656 894.160156 841.425781 893.09375 841.101562 C 892.023438 840.777344 890.964844 840.429688 889.914062 840.050781 C 888.863281 839.675781 887.824219 839.273438 886.792969 838.847656 C 885.761719 838.421875 884.742188 837.96875 883.734375 837.492188 C 882.726562 837.015625 881.730469 836.511719 880.746094 835.988281 C 879.761719 835.460938 878.792969 834.910156 877.835938 834.339844 C 876.878906 833.765625 875.933594 833.167969 875.007812 832.546875 C 874.082031 831.929688 873.167969 831.285156 872.273438 830.621094 C 871.375 829.957031 870.496094 829.269531 869.632812 828.5625 C 868.773438 827.855469 867.929688 827.128906 867.101562 826.378906 C 866.273438 825.628906 865.46875 824.859375 864.679688 824.070312 C 863.890625 823.28125 863.121094 822.472656 862.371094 821.648438 C 861.621094 820.820312 860.894531 819.976562 860.1875 819.113281 C 859.476562 818.25 858.792969 817.371094 858.128906 816.476562 C 857.460938 815.582031 856.820312 814.667969 856.199219 813.742188 C 855.582031 812.8125 854.984375 811.871094 854.410156 810.914062 C 853.835938 809.957031 853.289062 808.988281 852.761719 808.003906 C 852.234375 807.019531 851.734375 806.023438 851.257812 805.015625 C 850.78125 804.007812 850.328125 802.984375 849.902344 801.957031 C 849.472656 800.925781 849.074219 799.882812 848.695312 798.832031 C 848.320312 797.785156 847.972656 796.722656 847.648438 795.65625 C 847.324219 794.589844 847.027344 793.515625 846.753906 792.433594 C 846.484375 791.351562 846.238281 790.261719 846.023438 789.167969 C 845.804688 788.074219 845.613281 786.976562 845.449219 785.871094 C 845.285156 784.765625 845.148438 783.660156 845.039062 782.550781 C 844.929688 781.441406 844.847656 780.328125 844.792969 779.214844 C 844.738281 778.097656 844.710938 776.984375 844.710938 775.867188 L 844.710938 275.96875 C 844.710938 274.855469 844.738281 273.738281 844.792969 272.625 C 844.847656 271.511719 844.929688 270.398438 845.039062 269.289062 C 845.148438 268.179688 845.285156 267.070312 845.449219 265.96875 C 845.613281 264.863281 845.804688 263.765625 846.023438 262.671875 C 846.238281 261.578125 846.484375 260.488281 846.753906 259.40625 C 847.027344 258.324219 847.324219 257.25 847.648438 256.183594 C 847.972656 255.113281 848.320312 254.054688 848.695312 253.003906 C 849.074219 251.953125 849.472656 250.914062 849.902344 249.882812 C 850.328125 248.851562 850.78125 247.832031 851.257812 246.824219 C 851.734375 245.816406 852.234375 244.820312 852.761719 243.835938 C 853.289062 242.851562 853.835938 241.882812 854.410156 240.925781 C 854.984375 239.96875 855.582031 239.027344 856.199219 238.097656 C 856.820312 237.171875 857.460938 236.257812 858.128906 235.363281 C 858.792969 234.464844 859.476562 233.585938 860.1875 232.726562 C 860.894531 231.863281 861.621094 231.019531 862.371094 230.191406 C 863.121094 229.363281 863.890625 228.558594 864.679688 227.769531 C 865.46875 226.980469 866.273438 226.210938 867.101562 225.460938 C 867.929688 224.710938 868.773438 223.984375 869.632812 223.277344 C 870.496094 222.566406 871.375 221.882812 872.273438 221.21875 C 873.167969 220.554688 874.082031 219.910156 875.007812 219.289062 C 875.933594 218.671875 876.878906 218.074219 877.835938 217.5 C 878.792969 216.925781 879.761719 216.378906 880.746094 215.851562 C 881.730469 215.324219 882.726562 214.824219 883.734375 214.347656 C 884.742188 213.871094 885.761719 213.417969 886.792969 212.992188 C 887.824219 212.566406 888.863281 212.164062 889.914062 211.789062 C 890.964844 211.410156 892.023438 211.0625 893.09375 210.738281 C 894.160156 210.414062 895.234375 210.117188 896.316406 209.84375 C 897.398438 209.574219 898.488281 209.328125 899.582031 209.113281 C 900.675781 208.894531 901.773438 208.703125 902.878906 208.539062 C 903.980469 208.375 905.089844 208.238281 906.199219 208.128906 C 907.308594 208.019531 908.421875 207.9375 909.535156 207.882812 C 910.648438 207.828125 911.765625 207.800781 912.878906 207.800781 Z M 912.878906 207.800781 " fill-opacity="1" fill-rule="nonzero"/><path fill="#ffffff" d="M 280.28125 207.800781 L 587.492188 207.800781 C 588.605469 207.800781 589.722656 207.828125 590.835938 207.882812 C 591.949219 207.9375 593.0625 208.019531 594.171875 208.128906 C 595.285156 208.238281 596.390625 208.375 597.492188 208.539062 C 598.597656 208.703125 599.695312 208.894531 600.789062 209.113281 C 601.886719 209.328125 602.972656 209.574219 604.054688 209.84375 C 605.136719 210.117188 606.210938 210.414062 607.28125 210.738281 C 608.347656 211.0625 609.40625 211.410156 610.457031 211.789062 C 611.507812 212.164062 612.546875 212.566406 613.578125 212.992188 C 614.609375 213.417969 615.628906 213.871094 616.636719 214.347656 C 617.644531 214.824219 618.640625 215.324219 619.625 215.851562 C 620.609375 216.378906 621.578125 216.925781 622.535156 217.5 C 623.492188 218.074219 624.4375 218.671875 625.363281 219.289062 C 626.292969 219.910156 627.203125 220.554688 628.097656 221.21875 C 628.996094 221.882812 629.875 222.566406 630.738281 223.277344 C 631.597656 223.984375 632.445312 224.710938 633.269531 225.460938 C 634.097656 226.210938 634.90625 226.980469 635.695312 227.769531 C 636.484375 228.558594 637.25 229.363281 638 230.191406 C 638.75 231.019531 639.476562 231.863281 640.1875 232.726562 C 640.894531 233.585938 641.578125 234.464844 642.246094 235.363281 C 642.910156 236.257812 643.550781 237.171875 644.171875 238.097656 C 644.789062 239.027344 645.386719 239.96875 645.960938 240.925781 C 646.535156 241.882812 647.085938 242.851562 647.609375 243.835938 C 648.136719 244.820312 648.636719 245.816406 649.113281 246.824219 C 649.589844 247.832031 650.042969 248.851562 650.46875 249.882812 C 650.898438 250.914062 651.300781 251.953125 651.675781 253.003906 C 652.050781 254.054688 652.402344 255.113281 652.722656 256.183594 C 653.046875 257.25 653.34375 258.324219 653.617188 259.40625 C 653.886719 260.488281 654.132812 261.578125 654.351562 262.671875 C 654.566406 263.765625 654.757812 264.863281 654.921875 265.96875 C 655.085938 267.070312 655.222656 268.179688 655.332031 269.289062 C 655.441406 270.398438 655.523438 271.511719 655.578125 272.625 C 655.632812 273.738281 655.660156 274.855469 655.660156 275.96875 L 655.660156 1139.429688 C 655.660156 1140.546875 655.632812 1141.660156 655.578125 1142.777344 C 655.523438 1143.890625 655.441406 1145.003906 655.332031 1146.113281 C 655.222656 1147.222656 655.085938 1148.328125 654.921875 1149.433594 C 654.757812 1150.539062 654.566406 1151.636719 654.351562 1152.730469 C 654.132812 1153.824219 653.886719 1154.914062 653.617188 1155.996094 C 653.34375 1157.078125 653.046875 1158.152344 652.722656 1159.21875 C 652.402344 1160.285156 652.050781 1161.347656 651.675781 1162.394531 C 651.300781 1163.445312 650.898438 1164.488281 650.46875 1165.519531 C 650.042969 1166.546875 649.589844 1167.566406 649.113281 1168.578125 C 648.636719 1169.585938 648.136719 1170.582031 647.609375 1171.566406 C 647.085938 1172.550781 646.535156 1173.519531 645.960938 1174.476562 C 645.386719 1175.433594 644.792969 1176.375 644.171875 1177.304688 C 643.550781 1178.230469 642.910156 1179.144531 642.246094 1180.039062 C 641.582031 1180.933594 640.894531 1181.8125 640.1875 1182.675781 C 639.476562 1183.539062 638.75 1184.382812 638 1185.210938 C 637.25 1186.035156 636.484375 1186.84375 635.695312 1187.632812 C 634.90625 1188.421875 634.097656 1189.191406 633.269531 1189.941406 C 632.445312 1190.691406 631.597656 1191.417969 630.738281 1192.125 C 629.875 1192.832031 628.996094 1193.519531 628.097656 1194.183594 C 627.203125 1194.847656 626.292969 1195.492188 625.363281 1196.109375 C 624.4375 1196.730469 623.492188 1197.328125 622.535156 1197.902344 C 621.578125 1198.472656 620.609375 1199.023438 619.625 1199.550781 C 618.640625 1200.074219 617.644531 1200.578125 616.636719 1201.054688 C 615.628906 1201.53125 614.609375 1201.984375 613.578125 1202.410156 C 612.546875 1202.835938 611.507812 1203.238281 610.457031 1203.613281 C 609.40625 1203.988281 608.347656 1204.339844 607.28125 1204.664062 C 606.210938 1204.988281 605.136719 1205.285156 604.054688 1205.554688 C 602.972656 1205.828125 601.886719 1206.070312 600.789062 1206.289062 C 599.695312 1206.507812 598.597656 1206.699219 597.492188 1206.863281 C 596.390625 1207.023438 595.285156 1207.160156 594.171875 1207.269531 C 593.0625 1207.378906 591.949219 1207.460938 590.835938 1207.515625 C 589.722656 1207.570312 588.605469 1207.597656 587.492188 1207.597656 L 280.28125 1207.597656 C 279.164062 1207.597656 278.050781 1207.570312 276.9375 1207.515625 C 275.824219 1207.460938 274.710938 1207.378906 273.601562 1207.269531 C 272.488281 1207.160156 271.382812 1207.023438 270.277344 1206.863281 C 269.175781 1206.699219 268.078125 1206.507812 266.984375 1206.289062 C 265.886719 1206.070312 264.800781 1205.828125 263.71875 1205.554688 C 262.636719 1205.285156 261.5625 1204.988281 260.492188 1204.664062 C 259.425781 1204.339844 258.367188 1203.988281 257.316406 1203.613281 C 256.265625 1203.238281 255.226562 1202.835938 254.195312 1202.410156 C 253.164062 1201.984375 252.144531 1201.53125 251.136719 1201.054688 C 250.128906 1200.578125 249.132812 1200.074219 248.148438 1199.550781 C 247.164062 1199.023438 246.191406 1198.472656 245.234375 1197.902344 C 244.277344 1197.328125 243.335938 1196.730469 242.410156 1196.109375 C 241.480469 1195.492188 240.570312 1194.847656 239.671875 1194.183594 C 238.777344 1193.519531 237.898438 1192.832031 237.035156 1192.125 C 236.171875 1191.417969 235.328125 1190.691406 234.503906 1189.941406 C 233.675781 1189.191406 232.867188 1188.421875 232.078125 1187.632812 C 231.289062 1186.84375 230.519531 1186.035156 229.773438 1185.210938 C 229.023438 1184.382812 228.292969 1183.539062 227.585938 1182.675781 C 226.878906 1181.8125 226.191406 1180.933594 225.527344 1180.039062 C 224.863281 1179.144531 224.222656 1178.230469 223.601562 1177.304688 C 222.980469 1176.375 222.386719 1175.433594 221.8125 1174.476562 C 221.238281 1173.519531 220.6875 1172.550781 220.164062 1171.566406 C 219.636719 1170.582031 219.136719 1169.585938 218.660156 1168.578125 C 218.179688 1167.566406 217.730469 1166.546875 217.300781 1165.519531 C 216.875 1164.488281 216.472656 1163.445312 216.097656 1162.394531 C 215.722656 1161.347656 215.371094 1160.285156 215.046875 1159.21875 C 214.726562 1158.152344 214.425781 1157.078125 214.15625 1155.996094 C 213.886719 1154.914062 213.640625 1153.824219 213.421875 1152.730469 C 213.207031 1151.636719 213.015625 1150.539062 212.851562 1149.433594 C 212.6875 1148.328125 212.550781 1147.222656 212.441406 1146.113281 C 212.332031 1145.003906 212.25 1143.890625 212.195312 1142.777344 C 212.140625 1141.660156 212.113281 1140.546875 212.113281 1139.429688 L 212.113281 275.96875 C 212.113281 274.855469 212.140625 273.738281 212.195312 272.625 C 212.25 271.511719 212.332031 270.398438 212.441406 269.289062 C 212.550781 268.179688 212.6875 267.070312 212.851562 265.96875 C 213.015625 264.863281 213.207031 263.765625 213.421875 262.671875 C 213.640625 261.578125 213.886719 260.488281 214.15625 259.40625 C 214.425781 258.324219 214.726562 257.25 215.046875 256.183594 C 215.371094 255.113281 215.722656 254.054688 216.097656 253.003906 C 216.472656 251.953125 216.875 250.914062 217.300781 249.882812 C 217.730469 248.851562 218.179688 247.832031 218.660156 246.824219 C 219.136719 245.816406 219.636719 244.820312 220.164062 243.835938 C 220.6875 242.851562 221.238281 241.882812 221.8125 240.925781 C 222.386719 239.96875 222.980469 239.027344 223.601562 238.097656 C 224.222656 237.171875 224.863281 236.257812 225.527344 235.363281 C 226.191406 234.464844 226.878906 233.585938 227.585938 232.726562 C 228.292969 231.863281 229.023438 231.019531 229.773438 230.191406 C 230.519531 229.363281 231.289062 228.558594 232.078125 227.769531 C 232.867188 226.980469 233.675781 226.210938 234.503906 225.460938 C 235.328125 224.710938 236.171875 223.984375 237.035156 223.277344 C 237.898438 222.566406 238.777344 221.882812 239.671875 221.21875 C 240.570312 220.554688 241.480469 219.910156 242.410156 219.289062 C 243.335938 218.671875 244.277344 218.074219 245.234375 217.5 C 246.191406 216.925781 247.164062 216.378906 248.148438 215.851562 C 249.132812 215.324219 250.128906 214.824219 251.136719 214.347656 C 252.144531 213.871094 253.164062 213.417969 254.195312 212.992188 C 255.226562 212.566406 256.265625 212.164062 257.316406 211.789062 C 258.367188 211.410156 259.425781 211.0625 260.492188 210.738281 C 261.5625 210.414062 262.636719 210.117188 263.71875 209.84375 C 264.800781 209.574219 265.886719 209.328125 266.984375 209.113281 C 268.078125 208.894531 269.175781 208.703125 270.277344 208.539062 C 271.382812 208.375 272.488281 208.238281 273.601562 208.128906 C 274.710938 208.019531 275.824219 207.9375 276.9375 207.882812 C 278.050781 207.828125 279.164062 207.800781 280.28125 207.800781 Z M 280.28125 207.800781 " fill-opacity="1" fill-rule="nonzero"/></svg>