<svg xmlns="http://www.w3.org/2000/svg" xmlns:xlink="http://www.w3.org/1999/xlink" width="2000" zoomAndPan="magnify" viewBox="0 0 1500 1499.999933" height="2000" preserveAspectRatio="xMidYMid meet" version="1.0"><defs><clipPath id="f4bcc02281"><path d="M 23.0625 23.0625 L 1477.3125 23.0625 L 1477.3125 1477.3125 L 23.0625 1477.3125 Z M 23.0625 23.0625 " clip-rule="nonzero"/></clipPath></defs><g clip-path="url(#f4bcc02281)"><path fill="#007acc" d="M 23.0625 1477.3125 L 1477.3125 1477.3125 L 1477.3125 23.0625 L 23.0625 23.0625 Z M 23.0625 1477.3125 " fill-opacity="1" fill-rule="nonzero"/></g><path fill="#ffffff" d="M 344.585938 754.957031 L 344.132812 814.546875 L 533.410156 814.546875 L 533.410156 1352.394531 L 667.300781 1352.394531 L 667.300781 814.546875 L 856.585938 814.546875 L 856.585938 756.152344 C 856.585938 723.828125 855.890625 696.789062 854.972656 696.105469 C 854.277344 695.195312 739.089844 694.742188 599.421875 694.96875 L 345.269531 695.652344 Z M 344.585938 754.957031 " fill-opacity="1" fill-rule="nonzero"/><path fill="#ffffff" d="M 1196.515625 694.003906 C 1233.441406 703.207031 1261.617188 719.625 1287.464844 746.378906 C 1300.8125 760.695312 1320.695312 786.769531 1322.285156 793.019531 C 1322.738281 794.894531 1259.515625 837.328125 1221.167969 861.128906 C 1219.804688 862.039062 1214.296875 856.015625 1208.046875 846.8125 C 1189.359375 819.546875 1169.703125 807.789062 1139.710938 805.742188 C 1095.628906 802.730469 1067.222656 825.796875 1067.449219 864.367188 C 1067.449219 875.671875 1069.097656 882.375 1073.699219 891.578125 C 1083.414062 911.6875 1101.421875 923.671875 1157.945312 948.15625 C 1262.070312 992.921875 1306.605469 1022.460938 1334.328125 1064.496094 C 1365.230469 1111.363281 1372.160156 1186.121094 1351.144531 1241.734375 C 1328.078125 1302.234375 1270.820312 1343.304688 1190.265625 1356.9375 C 1165.328125 1361.3125 1106.25 1360.628906 1079.4375 1355.800781 C 1021.039062 1345.40625 965.652344 1316.546875 931.511719 1278.714844 C 918.105469 1263.945312 892.03125 1225.375 893.621094 1222.589844 C 894.363281 1221.679688 900.324219 1217.988281 907.03125 1214.070312 C 913.503906 1210.375 937.988281 1196.289062 961.050781 1182.882812 L 1002.804688 1158.683594 L 1011.609375 1171.578125 C 1023.824219 1190.265625 1050.636719 1215.886719 1066.769531 1224.464844 C 1113.179688 1248.890625 1176.859375 1245.425781 1208.273438 1217.308594 C 1221.679688 1205.035156 1227.191406 1192.367188 1227.191406 1173.679688 C 1227.191406 1156.808594 1225.148438 1149.421875 1216.339844 1136.753906 C 1205.035156 1120.566406 1181.972656 1106.933594 1116.417969 1078.585938 C 1041.378906 1046.261719 1009.054688 1026.152344 979.515625 994.285156 C 962.414062 975.820312 946.28125 946.28125 939.578125 921.570312 C 934.011719 901.0625 932.648438 849.597656 937.023438 828.804688 C 952.53125 756.320312 1007.234375 705.761719 1086.140625 690.765625 C 1111.761719 685.9375 1171.351562 687.753906 1196.515625 694.003906 Z M 1196.515625 694.003906 " fill-opacity="1" fill-rule="nonzero"/></svg>